<?xml version="1.0" encoding="UTF-8" standalone="no"?>
<!-- Created with Inkscape (http://www.inkscape.org/) -->

<svg
   xmlns:dc="http://purl.org/dc/elements/1.1/"
   xmlns:cc="http://creativecommons.org/ns#"
   xmlns:rdf="http://www.w3.org/1999/02/22-rdf-syntax-ns#"
   xmlns:svg="http://www.w3.org/2000/svg"
   xmlns="http://www.w3.org/2000/svg"
   xmlns:sodipodi="http://sodipodi.sourceforge.net/DTD/sodipodi-0.dtd"
   xmlns:inkscape="http://www.inkscape.org/namespaces/inkscape"
   width="1500"
   height="1260"
   id="svg2"
   version="1.1"
   inkscape:version="0.48.3.1 r9886"
   sodipodi:docname="bobo_2.svg">
  <defs
     id="defs4">
    <inkscape:path-effect
       effect="spiro"
       id="path-effect3028"
       is_visible="true" />
    <inkscape:path-effect
       effect="spiro"
       id="path-effect3030"
       is_visible="true" />
    <inkscape:path-effect
       effect="spiro"
       id="path-effect3026"
       is_visible="true" />
    <inkscape:path-effect
       effect="spiro"
       id="path-effect3815"
       is_visible="true" />
    <inkscape:path-effect
       effect="spiro"
       id="path-effect3809"
       is_visible="true" />
    <inkscape:path-effect
       effect="spiro"
       id="path-effect3805"
       is_visible="true" />
    <inkscape:path-effect
       effect="spiro"
       id="path-effect3801"
       is_visible="true" />
    <inkscape:path-effect
       effect="spiro"
       id="path-effect3029"
       is_visible="true" />
    <inkscape:path-effect
       effect="spiro"
       id="path-effect3025"
       is_visible="true" />
    <inkscape:path-effect
       effect="spiro"
       id="path-effect3021"
       is_visible="true" />
    <inkscape:path-effect
       effect="spiro"
       id="path-effect2998"
       is_visible="true" />
    <inkscape:path-effect
       effect="spiro"
       id="path-effect3012"
       is_visible="true" />
  </defs>
  <sodipodi:namedview
     id="base"
     pagecolor="#ffffff"
     bordercolor="#666666"
     borderopacity="1.0"
     inkscape:pageopacity="0.0"
     inkscape:pageshadow="2"
     inkscape:zoom="0.49497476"
     inkscape:cx="1357.7335"
     inkscape:cy="598.15694"
     inkscape:document-units="px"
     inkscape:current-layer="layer1"
     showgrid="false"
     inkscape:window-width="1301"
     inkscape:window-height="744"
     inkscape:window-x="65"
     inkscape:window-y="24"
     inkscape:window-maximized="1" />
  <metadata
     id="metadata7">
    <rdf:RDF>
      <cc:Work
         rdf:about="">
        <dc:format>image/svg+xml</dc:format>
        <dc:type
           rdf:resource="http://purl.org/dc/dcmitype/StillImage" />
        <dc:title />
      </cc:Work>
    </rdf:RDF>
  </metadata>
  <g
     inkscape:label="Layer 1"
     inkscape:groupmode="layer"
     id="layer1"
     transform="translate(0,207.63782)">
    <path
       style="fill:none;stroke:#000000;stroke-width:3;stroke-linecap:butt;stroke-linejoin:miter;stroke-miterlimit:4;stroke-opacity:1;stroke-dasharray:none"
       d="M 452.80487,-324.15697 450.19513,1142.1671"
       id="path2996"
       inkscape:path-effect="#path-effect2998"
       inkscape:original-d="M 452.80487,-324.15697 C 450.19513,1139.3088 450.19513,1142.1671 450.19513,1142.1671"
       inkscape:connector-curvature="0" />
    <path
       style="fill:none;stroke:#000000;stroke-width:3;stroke-linecap:butt;stroke-linejoin:miter;stroke-miterlimit:4;stroke-opacity:1;stroke-dasharray:none"
       d="m 1372.3267,-76.775587 171.9861,-0.557538"
       id="path3023"
       inkscape:path-effect="#path-effect3025"
       inkscape:original-d="m 1372.3267,-76.775587 c 171.9861,-0.557538 171.9861,-0.557538 171.9861,-0.557538"
       inkscape:connector-curvature="0" />
    <path
       style="fill:none;stroke:#000000;stroke-width:3;stroke-linecap:butt;stroke-linejoin:miter;stroke-miterlimit:4;stroke-opacity:1;stroke-dasharray:none"
       d="m 1370.4355,920.14099 203.4148,-0.55762"
       id="path3799"
       inkscape:path-effect="#path-effect3801"
       inkscape:original-d="m 1370.4355,920.14099 c 203.4148,-0.55762 203.4148,-0.55762 203.4148,-0.55762"
       inkscape:connector-curvature="0" />
    <path
       style="fill:none;stroke:#000000;stroke-width:3;stroke-linecap:butt;stroke-linejoin:miter;stroke-miterlimit:4;stroke-opacity:1;stroke-dasharray:none"
       d="m 1377.0374,272.15115 211.9862,-0.55764"
       id="path3803"
       inkscape:path-effect="#path-effect3805"
       inkscape:original-d="m 1377.0374,272.15115 c 206.2568,-0.55764 211.9862,-0.55764 211.9862,-0.55764"
       inkscape:connector-curvature="0" />
    <path
       style="fill:none;stroke:#000000;stroke-width:3;stroke-linecap:butt;stroke-linejoin:miter;stroke-miterlimit:4;stroke-opacity:1;stroke-dasharray:none"
       d="m 1373.9895,572.85503 262.6128,0.0549"
       id="path3807"
       inkscape:path-effect="#path-effect3809"
       inkscape:original-d="m 1373.9895,572.85503 c 262.6128,0.0549 262.6128,0.0549 262.6128,0.0549"
       inkscape:connector-curvature="0" />
    <rect
       style="fill:#ffff00;fill-opacity:0.97969546;stroke:#000000;stroke-width:3.04135609;stroke-miterlimit:4;stroke-opacity:1;stroke-dasharray:none"
       id="rect3811"
       width="478.64285"
       height="302.85715"
       x="896.49994"
       y="272.36218" />
    <path
       sodipodi:type="arc"
       style="fill:#f9f9f9;fill-opacity:0.97969545999999996;stroke:#000000;stroke-width:1.87512585;stroke-miterlimit:4;stroke-opacity:1;stroke-dasharray:none"
       id="path3817"
       sodipodi:cx="-505.71429"
       sodipodi:cy="641.42859"
       sodipodi:rx="251.42857"
       sodipodi:ry="487.14285"
       d="m -505.71429,1128.5714 c -138.86016,0 -251.42857,-218.10123 -251.42858,-487.1428 0,-268.74346 112.32838,-486.72107 251.03452,-487.14227"
       transform="matrix(2.5015588,0.00164965,-6.8093898e-4,1.0232241,2638.9781,-233.69575)"
       sodipodi:start="1.5707963"
       sodipodi:end="4.7108217"
       sodipodi:open="true" />
    <path
       style="fill:#ffff00;fill-opacity:0.97969546;stroke:#000000;stroke-width:3.01134729;stroke-miterlimit:4;stroke-opacity:1;stroke-dasharray:none"
       d="m 898.2362,422.85638 0,-150.4994 238.1474,0 238.1472,0 0,150.4994 0,150.49941 -238.1472,0 -238.1474,0 0,-150.49941 z"
       id="path3821"
       inkscape:connector-curvature="0" />
    <path
       sodipodi:type="arc"
       style="fill:#ffff00;fill-opacity:0.97969546;stroke:#000000;stroke-width:3;stroke-miterlimit:4;stroke-opacity:1;stroke-dasharray:none"
       id="path3825"
       sodipodi:cx="-394.28571"
       sodipodi:cy="591.42859"
       sodipodi:rx="120"
       sodipodi:ry="145.71428"
       d="m -394.2857,737.14287 c -66.27417,0 -120,-65.2385 -120.00001,-145.71428 0,-80.3866 53.61128,-145.58811 119.81193,-145.7141"
       transform="matrix(1.3058651,0,0,1.0296906,1412.9908,-185.70276)"
       sodipodi:start="1.5707963"
       sodipodi:end="4.7108217"
       sodipodi:open="true" />
    <path
       style="fill:#000000"
       d="m 386.32252,495.72542 c -2.4485,-2.15262 -4.2926,-2.38607 -6.0755,-0.76919 -1.4079,1.27685 -6.9723,2.32154 -12.3654,2.32154 -7.517,0 -9.8055,-0.77459 -9.8055,-3.31894 0,-3.1063 6.1589,-49.36109 7.7775,-58.41083 0.9798,-5.47781 15.1356,-5.83502 19.6344,-0.49545 2.6752,3.17516 3.4377,3.20268 6.2067,0.22403 4.414,-4.74809 30.9689,-4.9482 36.2863,-0.27344 3.3071,2.9074 4.2612,2.91682 6.8659,0.0677 2.4437,-2.67287 12.4639,-3.35504 52.1319,-3.54903 55.89118,-0.27334 54.281,-0.80469 54.281,17.91238 0,5.61976 -0.62449,10.21776 -1.38776,10.21776 -0.76326,0 -1.38775,4.71222 -1.38775,10.4716 0,12.33928 -1.89857,20.39157 -5.77524,24.49409 -3.80722,4.02904 -101.70735,4.30804 -104.55875,0.29798 -1.2595,-1.7713 -2.7425,-1.91836 -4.414,-0.43767 -4.3039,3.81241 -33.393,4.78228 -37.4138,1.24742 z m -7.2996,-7.56026 c 2.3611,-3.23973 3.2863,-7.13856 3.488,-14.69757 0.1509,-5.6585 0.9944,-13.42154 1.8743,-17.25121 0.88,-3.82967 1.2335,-9.43717 0.7856,-12.4611 -0.7504,-5.06681 -1.4314,-5.44293 -8.6812,-4.79502 l -7.8669,0.70307 -3.1286,22.34028 c -4.415,31.52551 -4.5252,30.57094 3.5303,30.57094 4.5666,0 7.8357,-1.44169 9.9985,-4.40939 z m -7.0692,-11.77432 c 0,-2.58677 0.6245,-5.35723 1.3877,-6.15659 0.7633,-0.79936 1.3878,0.66308 1.3878,3.24984 0,2.58677 -0.6245,5.35724 -1.3878,6.1566 -0.7632,0.79935 -1.3877,-0.66308 -1.3877,-3.24985 z m 2.7755,-21.16448 c 0,-2.58678 0.6245,-5.35724 1.3877,-6.1566 0.7633,-0.79935 1.3878,0.66308 1.3878,3.24984 0,2.58678 -0.6245,5.35724 -1.3878,6.1566 -0.7632,0.79936 -1.3877,-0.66308 -1.3877,-3.24984 z m 24.9432,33.16777 c 3.8874,-5.33413 8.9617,-38.91349 6.8775,-45.51249 -1.9404,-6.14387 -7.9891,-8.1668 -12.296,-4.11227 -3.7053,3.48819 -7.238,17.70629 -9.053,36.43548 -0.7148,7.37572 -0.398,10.58793 1.3333,13.52175 2.9855,5.05914 9.3258,4.89869 13.1382,-0.33247 z m -6.9024,-6.05518 c 0,-6.63807 4.6465,-34.445 5.7558,-34.445 0.7535,0 1.0439,1.8519 0.6454,4.11533 -0.3986,2.26342 -1.4623,9.40643 -2.3639,15.87335 -1.4247,10.21964 -4.0373,19.57452 -4.0373,14.45632 z m 29.2733,5.82621 c 2.3611,-3.23973 3.2863,-7.13856 3.488,-14.69757 0.1509,-5.6585 0.9597,-13.26718 1.7974,-16.90819 3.1981,-13.90173 0.7275,-18.68657 -9.0982,-17.62029 l -6.6736,0.72422 -3.1111,23.51609 c -1.711,12.93385 -3.1279,24.83888 -3.1485,26.45561 -0.062,4.88224 12.9491,3.74017 16.746,-1.46987 z m -7.0692,-11.77432 c 0,-2.58677 0.6245,-5.35723 1.3877,-6.15659 0.7633,-0.79936 1.3878,0.66308 1.3878,3.24984 0,2.58677 -0.6245,5.35724 -1.3878,6.1566 -0.7632,0.79935 -1.3877,-0.66308 -1.3877,-3.24985 z m 2.7755,-21.16448 c 0,-2.58678 0.6245,-5.35724 1.3877,-6.1566 0.7633,-0.79935 1.3878,0.66308 1.3878,3.24984 0,2.58678 -0.6245,5.35724 -1.3878,6.1566 -0.7632,0.79936 -1.3877,-0.66308 -1.3877,-3.24984 z m 24.8164,33.23286 c 3.7706,-5.3144 8.9795,-39.32375 6.9884,-45.6281 -1.7798,-5.63545 -6.6906,-7.5596 -11.4567,-4.48899 -4.4237,2.85005 -6.8433,11.30319 -9.292,32.46247 -1.3529,11.69064 -1.3453,15.4019 0.037,18.22499 2.3529,4.80408 10.1394,4.48044 13.723,-0.57037 z m -6.7756,-7.27701 c 0,-5.9275 4.5336,-33.28826 5.5158,-33.28826 1.2716,0 -2.6425,30.94123 -4.2986,33.98077 -0.7519,1.38013 -1.2172,1.11543 -1.2172,-0.69251 z m 24.9796,9.23306 c 0,-1.18761 0.3791,-3.83317 0.8424,-5.87903 0.5527,-2.44094 0.076,-3.71974 -1.3878,-3.71974 -2.718,0 -2.7358,-2.02571 -0.1762,-19.98869 2.9151,-20.45822 2.7695,-22.3403 -1.7283,-22.3403 -3.7419,0 -3.9152,0.60377 -6.9388,24.17985 -1.7056,13.2989 -3.1011,25.46849 -3.1011,27.04351 0,1.82624 2.2624,2.86368 6.2449,2.86368 3.4347,0 6.2449,-0.9717 6.2449,-2.15928 z m 10.2379,-1.95605 c 1.3162,-7.62156 6.4152,-45.6193 6.4152,-47.80577 0,-1.19126 -1.7722,-2.16594 -3.9381,-2.16594 -3.8661,0 -4.0013,0.46148 -7.4077,25.27982 -1.9083,13.90389 -3.2218,26.07347 -2.9188,27.0435 1.1058,3.54056 7.1443,1.7315 7.8494,-2.35161 z m 9.8122,1.17581 c 0.2939,-1.61673 1.0151,-6.11419 1.6025,-9.99434 l 1.0681,-7.05484 0.7825,9.40645 c 0.6696,8.04906 1.2723,9.40644 4.177,9.40644 3.1427,0 3.6271,-1.65738 6.5288,-22.34029 4.0435,-28.82076 4.0428,-30.57094 -0.012,-30.57094 -2.702,0 -3.5193,1.74156 -4.6905,9.99434 l -1.4176,9.99435 -0.1666,-9.99435 c -0.1553,-9.31021 -0.4326,-9.99434 -4.0508,-9.99434 -3.7798,0 -3.9663,0.61694 -6.9388,22.95232 -1.6801,12.62377 -3.0546,24.79336 -3.0546,27.04353 0,4.74994 5.3373,5.74579 6.1725,1.15167 z m 23.5407,-6.46693 1.4247,-8.23063 0.479,8.96022 c 0.4369,8.17443 0.8058,8.89623 4.2065,8.23064 3.6425,-0.71294 3.7172,-1.0523 3.2742,-14.86965 -0.3765,-11.74271 0.1501,-15.92904 3.1057,-24.6919 4.4102,-13.07514 4.4222,-14.07927 0.1675,-14.07927 -2.2791,0 -4.1595,2.16367 -5.6201,6.46694 l -2.1951,6.46693 0.5848,-6.59342 c 0.5432,-6.12357 0.2809,-6.54249 -3.6804,-5.87902 -4.1782,0.6998 -4.3291,1.17043 -7.3914,23.05467 -4.1594,29.72363 -4.138,31.05971 0.4838,30.13922 2.9186,-0.58127 4.0479,-2.54519 5.1608,-8.97473 z m 27.07318,5.29112 c 1.6343,-2.26342 3.34085,-8.02547 3.79232,-12.80454 0.72312,-7.65452 0.28707,-9.51542 -3.66184,-15.62723 -3.70981,-5.74177 -4.2248,-7.68999 -2.9869,-11.29946 1.38119,-4.02728 1.49903,-3.94408 1.538,1.08586 0.0353,4.54197 0.67649,5.32366 3.85852,4.70323 7.81197,-1.52317 4.77598,-18.38117 -3.3103,-18.38117 -4.05929,0 -9.88298,8.89777 -10.96948,16.75973 -0.6644,4.80728 0.1261,8.06868 3.5642,14.70389 3.18556,6.14814 4.10958,9.67251 3.31273,12.63539 -0.90523,3.36566 -1.20093,2.91382 -1.63493,-2.49776 -0.4495,-5.60445 -1.0936,-6.49635 -4.246,-5.87902 -2.9133,0.57047 -3.8128,2.15576 -4.1634,7.33685 -0.246,3.63502 0.2988,8.13247 1.2107,9.99433 2.2852,4.66584 10.10108,4.24921 13.69638,-0.7301 z m -91.74118,-76.9349 c -6.1228,-9.92757 -12.9705,-18.10364 -20.1224,-24.02578 -10.4791,-8.67726 -11.3174,-8.9722 -25.0987,-8.83111 l -14.2575,0.1459 5.931,-10.30493 c 3.262,-5.66772 10.2407,-15.1805 15.5081,-21.13953 30.3446,-34.32861 59.2122,-33.4936 87.8669,2.54164 8.8264,11.09984 23.398,39.87775 28.0999,55.49529 l 2.626,8.72268 -7.4778,-4.27789 c -22.3014,-12.75805 -42.6685,-8.83474 -58.4975,11.26839 -2.4297,3.08572 -4.6154,5.57523 -4.8572,5.5322 -0.2417,-0.043 -4.6161,-6.85012 -9.7208,-15.12692 z m 72.5078,-12.74926 c -0.8409,-2.66261 -4.6172,-11.1294 -8.3917,-18.81506 -5.4129,-11.02164 -7.4799,-13.70046 -9.784,-12.67947 -2.7347,1.21183 -2.5826,1.89327 2.3813,10.6717 l 5.3026,9.37724 -7.1045,-8.51933 c -3.9075,-4.68562 -7.4405,-8.5193 -7.8512,-8.5193 -0.4106,0 -0.9606,5.73892 -1.222,12.75319 l -0.4754,12.75317 10.8946,2.69552 c 5.9921,1.48252 12.237,3.55693 13.8776,4.60977 3.8165,2.44924 4.2584,1.64329 2.3727,-4.32743 z m -42.7784,-22.31274 c 0.5608,-1.45425 1.0291,-1.77482 1.0408,-0.71239 0.012,1.06241 0.958,0.34433 2.1029,-1.59573 2.369,-4.01431 2.7658,-12.27574 0.6939,-14.44561 -0.7633,-0.79936 -1.3878,0.19642 -1.3878,2.21281 0,5.83946 -5.2041,13.07264 -9.4055,13.07264 -2.1199,0 -5.3017,-1.71776 -7.0706,-3.81725 -2.564,-3.04318 -3.1019,-5.47616 -2.6526,-11.99769 0.4925,-7.14799 0.3378,-7.657 -1.226,-4.03314 -1.0248,2.37502 -1.4193,6.64696 -0.9232,9.99682 0.6033,4.07345 0.3836,5.3439 -0.7237,4.18421 -0.8746,-0.91594 -1.5902,-0.54466 -1.5902,0.82506 0,1.36971 1.249,2.49039 2.7755,2.49039 1.5265,0 2.6194,1.2291 2.4286,2.73133 -0.8004,6.30101 13.55,7.28112 15.9379,1.08855 z m -43.411,-5.90576 c 0.9127,-3.73399 6.106,-13.25802 11.5406,-21.16448 8.5995,-12.51083 10.6111,-14.37178 15.5089,-14.34749 8.3553,0.0414 19.7639,5.86551 27.5445,14.06146 3.7885,3.99069 7.1547,6.8041 7.4805,6.25198 1.1538,-1.95519 -15.6191,-18.17403 -22.2759,-21.54014 -15.2601,-7.71637 -26.6159,-6.81881 -42.5092,3.35989 -7.3216,4.68905 -23.7858,23.60901 -24.7483,28.43976 -0.2544,1.27692 1.6191,2.368 4.1633,2.4246 2.5442,0.0567 7.7483,2.03161 11.5646,4.38887 9.5139,5.87656 9.8494,5.82295 11.731,-1.87445 z m 31.9833,-12.02377 c 0,-1.2934 -0.6245,-2.35162 -1.3878,-2.35162 -0.7632,0 -1.3877,1.05822 -1.3877,2.35162 0,1.29338 0.6245,2.3516 1.3877,2.3516 0.7633,0 1.3878,-1.05822 1.3878,-2.3516 z"
       id="path3047"
       inkscape:connector-curvature="0"
       inkscape:transform-center-x="-80.812204"
       inkscape:transform-center-y="157.5838" />
    <path
       style="fill:#ffff00;fill-opacity:0.97969545999999996;stroke:#030304;stroke-width:3;stroke-miterlimit:4;stroke-opacity:1;stroke-dasharray:none"
       d="M 419.71753,559.7805 C 345.195,543.81497 291.07212,467.66943 301.18581,393.01809 c 4.79544,-35.39617 21.18986,-68.45409 45.40918,-91.56363 23.0389,-21.98321 66.88776,-41.73927 92.64093,-41.73927 l 11.13061,0 0,30.99599 0,30.996 -8.71566,0 c -4.79361,0 -12.32252,1.83901 -16.73092,4.08669 -9.48889,4.83804 -35.83691,32.60983 -41.89307,44.15684 l -4.25499,8.11281 10.16789,0 c 20.29584,0 39.32659,14.11139 55.51597,41.16536 l 5.38427,8.9976 -7.59601,1.47441 c -4.17781,0.81093 -15.41001,0.77368 -24.96045,-0.0827 -10.52865,-0.94418 -19.74218,-0.30255 -23.40436,1.6299 -3.96746,2.09353 -6.64759,2.21763 -7.81097,0.36165 -2.53787,-4.04875 -18.50977,-3.49451 -20.0811,0.69684 -2.28159,6.08589 -9.26117,59.7801 -8.04308,61.87574 0.63846,1.09842 18.15802,1.56988 38.93239,1.04772 20.77436,-0.52219 41.30824,-0.31138 45.63084,0.46845 l 7.85925,1.41788 0,33.46158 c 0,38.44486 2.29304,36.26005 -30.649,29.20263 z"
       id="path3049"
       inkscape:connector-curvature="0" />
    <path
       style="fill:#ffff00;fill-opacity:0.97969545999999996;stroke:#030304;stroke-width:3;stroke-miterlimit:4;stroke-opacity:1;stroke-dasharray:none"
       d="m 451.77121,528.23555 0,-33.63961 26.67442,0 c 35.56553,0 53.85235,-2.5294 56.00216,-7.7461 0.95766,-2.32388 2.60273,-15.52698 3.65569,-29.34023 1.52318,-19.98176 1.04908,-25.62516 -2.31961,-27.61104 -2.32875,-1.3728 -21.54942,-2.51534 -42.71262,-2.53893 -33.01224,-0.0368 -38.7503,-0.70252 -40.39186,-4.68589 -1.28125,-3.10907 1.25204,-7.27654 7.66826,-12.61484 11.63831,-9.68307 25.99154,-10.41521 45.18621,-2.30487 l 13.12074,5.54391 -1.98982,-7.70795 c -1.09439,-4.23937 -7.63397,-18.43058 -14.53238,-31.53602 -12.70493,-24.13654 -36.54608,-50.45943 -45.70207,-50.45943 -3.93507,0 -4.65912,-5.00998 -4.65912,-32.23795 l 0,-32.23796 8.27891,0.0333 c 12.58873,0.0505 38.65142,7.16202 57.55809,15.70521 21.98781,9.93544 56.27875,42.00159 68.91565,64.44442 40.84881,72.54654 11.9066,162.29506 -65.77028,203.95075 -12.26775,6.57881 -54.272,18.62287 -64.94817,18.62287 -3.14781,0 -4.0342,-7.39132 -4.0342,-33.63961 z"
       id="path3051"
       inkscape:connector-curvature="0" />
    <path
       sodipodi:type="arc"
       style="fill:#e6e6e6;fill-opacity:0.97969546;stroke:#030304;stroke-width:6;stroke-miterlimit:4;stroke-opacity:1;stroke-dasharray:none"
       id="path3786"
       sodipodi:cx="1701.4286"
       sodipodi:cy="594.28571"
       sodipodi:rx="24.285715"
       sodipodi:ry="22.857143"
       d="m 1725.7143,594.28571 a 24.285715,22.857143 0 1 1 -48.5714,0 24.285715,22.857143 0 1 1 48.5714,0 z"
       transform="translate(-329.44261,-173.55731)" />
    <path
       style="fill:none;stroke:#030304;stroke-width:10.87592316;stroke-linecap:butt;stroke-linejoin:miter;stroke-miterlimit:4;stroke-opacity:1;stroke-dasharray:none"
       d="m 1401.5997,365.22735 0,114.28572"
       id="path3010"
       inkscape:path-effect="#path-effect3012"
       inkscape:original-d="m 1401.5997,365.22735 c 0,114.28572 0,114.28572 0,114.28572"
       inkscape:connector-curvature="0" />
    <path
       style="fill:#000000;fill-opacity:0.97969546;stroke:#000000;stroke-width:3.03045774;stroke-miterlimit:4;stroke-opacity:1;stroke-dasharray:none"
       d=""
       id="path3777"
       inkscape:connector-curvature="0"
       transform="translate(0,-207.63782)" />
    <path
       style="fill:#000000;fill-opacity:0.97969546;stroke:#000000;stroke-width:2.14285707;stroke-miterlimit:4;stroke-opacity:1;stroke-dasharray:none"
       d=""
       id="path3013"
       inkscape:connector-curvature="0"
       transform="translate(0,-207.63782)" />
    <path
       style="fill:#000000;fill-opacity:0.97969546;stroke:#000000;stroke-width:2.14285707;stroke-miterlimit:4;stroke-opacity:1;stroke-dasharray:none"
       d="m 443.3967,700.71753 c -3.73343,-0.37215 -4.40809,-1.13941 -2.247,-2.55542 2.15387,-1.41127 4.17807,-7.24559 6.11803,-17.63392 3.01953,-16.16929 3.72204,-28.50968 1.83116,-32.16624 -3.09369,-5.98255 -11.24564,-5.18344 -14.62123,1.43328 -2.92445,5.73238 -6.35313,25.7663 -6.64432,38.82294 -0.13504,6.055 0.0205,7.0006 1.4776,8.98162 l 1.62852,2.21412 -6.91272,0 -6.91273,0 2.42706,-1.60818 c 4.10448,-2.71964 5.55229,-6.74533 6.36978,-17.71144 0.39397,-5.28493 1.19482,-12.4216 1.77965,-15.85927 0.58484,-3.43768 1.06334,-8.04276 1.06334,-10.23352 0,-3.49031 -0.27033,-4.25352 -2.18461,-6.1678 -2.18129,-2.1813 -2.19432,-2.18406 -8.60257,-1.81868 -3.52988,0.20127 -6.52848,0.48585 -6.66356,0.63241 -0.57704,0.6261 -6.24102,48.76561 -5.96163,50.66927 l 0.30781,2.09721 -4.62345,0 -4.62345,0 1.79192,-1.6607 c 2.39996,-2.2242 4.37495,-7.77241 6.14685,-17.26787 4.23371,-22.68821 3.8408,-33.05506 -1.35466,-35.74173 -5.02854,-2.60036 -9.55446,-0.11388 -12.13032,6.66423 -2.19468,5.7751 -4.68383,18.48324 -5.74441,29.3276 -0.99766,10.20104 -0.46764,13.96178 2.40592,17.07132 l 1.48518,1.60715 -6.82619,0 -6.82619,0 2.70447,-2.70447 c 3.18145,-3.18145 4.07916,-6.03174 4.66424,-14.80935 0.23517,-3.52812 1.06489,-11.00261 1.84381,-16.61 1.39149,-10.01716 1.31587,-15.25618 -0.26408,-18.29622 -0.63955,-1.23059 -1.35424,-1.31526 -8.16735,-0.96753 -4.10656,0.20958 -7.57348,0.49503 -7.70427,0.63432 -0.80296,0.85511 -6.18032,44.50125 -5.94938,48.28896 0.25439,4.17218 -0.38797,5.82929 -1.31908,3.40287 -0.73209,-1.9078 5.08587,-47.93297 6.92961,-54.81929 0.90702,-3.38767 2.33016,-4.11929 8.0128,-4.11929 4.70835,0 4.52451,-0.0782 11.03419,4.69391 1.51689,1.11201 1.76061,1.0608 4.9241,-1.03461 4.32751,-2.86642 6.65795,-3.30597 17.40859,-3.28349 11.03683,0.0231 14.89608,0.63279 18.20084,2.87547 3.13573,2.12796 5.1424,2.21211 7.17674,0.30094 1.53663,-1.44359 7.58423,-2.82557 12.40082,-2.8338 1.43847,-0.002 2.83383,-0.51151 3.43773,-1.25414 0.73966,-0.90959 1.11772,-1.00685 1.38826,-0.35714 0.29074,0.69819 8.52734,0.89286 37.77712,0.89286 24.8406,0 38.67677,0.2683 41.19047,0.79873 2.08184,0.43931 3.83939,0.84175 3.90568,0.89432 0.0663,0.0526 0.34545,0.99183 0.62037,2.08723 l 0.49988,1.99164 -2.63596,-1.257 c -2.54564,-1.21393 -2.72469,-1.2088 -5.2258,0.14975 -1.91484,1.0401 -3.33038,2.78838 -5.43107,6.70767 -2.44295,4.55787 -2.8864,6.08147 -3.16357,10.86945 -0.30373,5.24688 -0.17273,5.88361 2.26807,11.02322 1.42473,3.00008 2.59042,5.67821 2.59042,5.95141 0,0.27319 -1.04464,0.37952 -2.32143,0.23627 -1.27679,-0.14325 -2.91367,0.1798 -3.63752,0.71789 -1.52883,1.13647 -2.78915,6.89581 -2.26068,10.33062 0.19937,1.29577 0.53776,3.48094 0.75199,4.85594 0.34965,2.24415 0.22173,2.5 -1.25,2.50002 l -1.6395,10e-6 0.0689,-13.39287 c 0.0715,-13.88322 0.18845,-14.6742 3.90963,-26.43713 2.55881,-8.08861 2.71684,-11.26881 0.58762,-11.82561 -3.23264,-0.84536 -5.48893,1.03751 -7.54757,6.29844 -0.79759,2.03827 -0.84117,1.94241 -0.89285,-1.96429 l -0.0543,-4.10714 -2.85714,0 c -4.17378,0 -5.32743,1.55971 -6.70729,9.06813 -1.93173,10.5114 -4.66903,31.82525 -4.88067,38.00311 l -0.19775,5.77231 -2.39785,0.007 c -2.0022,0.006 -2.31404,-0.19946 -1.8899,-1.24321 1.28643,-3.1657 1.94248,-6.53696 3.99626,-20.53571 1.21037,-8.25 2.37748,-18.42057 2.59357,-22.60127 0.3647,-7.05572 0.29166,-7.65545 -1.01768,-8.35618 -1.97357,-1.05623 -4.18205,-0.30566 -5.11307,1.7377 -0.43368,0.95183 -1.13324,3.88854 -1.55458,6.52603 -0.42135,2.63748 -0.90926,4.93861 -1.08427,5.11362 -0.17501,0.175 -0.32312,-2.38717 -0.32913,-5.69371 -0.006,-3.30655 -0.26307,-6.40885 -0.57122,-6.89401 -0.86355,-1.35956 -4.60176,-1.83826 -6.00815,-0.76939 -0.71788,0.54559 -1.66409,3.02646 -2.26448,5.93721 -1.69799,8.2321 -4.82823,33.83409 -4.9553,40.52898 l -0.11849,6.24327 -2.30611,0.007 c -2.11316,0.006 -2.25049,-0.12775 -1.64128,-1.60042 0.36565,-0.88392 1.64084,-8.83928 2.83373,-17.67857 4.76918,-35.33933 4.72726,-33.05645 0.62355,-33.95777 -3.58595,-0.78761 -4.77783,1.12302 -6.3048,10.10678 -1.82288,10.72486 -4.9908,36.08625 -4.9908,39.95493 0,2.42322 -0.26898,3.1818 -1.12819,3.1818 -0.84562,0 -1.03409,-0.49196 -0.75251,-1.96428 1.4236,-7.44387 1.38894,-7.98647 -0.5575,-8.72651 -1.64149,-0.62409 -1.84752,-1.09415 -1.84752,-4.2151 0,-1.93198 0.80236,-9.41315 1.78302,-16.62482 2.59598,-19.09064 2.32468,-22.06027 -2.01261,-22.02978 -4.90654,0.0345 -5.65327,3.90875 -6.02108,31.23906 -0.25061,18.62198 -0.46782,22.32143 -1.31058,22.32143 -0.81551,0 -1.02693,-1.82381 -1.09715,-9.46428 l -0.087,-9.46429 -0.99937,7.85714 c -0.54965,4.32143 -0.82814,9.0625 -0.61887,10.53572 0.32007,2.25322 0.18065,2.6595 -0.87795,2.5585 -0.69214,-0.066 -2.54415,-0.24824 -4.11558,-0.40488 z"
       id="path3015"
       inkscape:connector-curvature="0"
       transform="translate(0,-207.63782)" />
    <path
       style="fill:#000000;fill-opacity:0.97969546;stroke:#000000;stroke-width:2.14285707;stroke-miterlimit:4;stroke-opacity:1;stroke-dasharray:none"
       d="m 455.71813,637.89296 c -0.6875,-0.17966 -1.25,-0.64618 -1.25,-1.0367 0,-0.41357 0.67105,-0.49385 1.60714,-0.19227 0.88393,0.28477 4.33929,0.74123 7.67857,1.01435 l 6.07143,0.49657 -6.42857,0.0224 c -3.53572,0.0123 -6.99107,-0.12464 -7.67857,-0.3043 z"
       id="path3017"
       inkscape:connector-curvature="0"
       transform="translate(0,-207.63782)" />
    <path
       style="fill:#000000;fill-opacity:0.97969546;stroke:#000000;stroke-width:2.14285707;stroke-miterlimit:4;stroke-opacity:1;stroke-dasharray:none"
       d=""
       id="path3019"
       inkscape:connector-curvature="0"
       transform="translate(0,-207.63782)" />
    <path
       style="fill:#000000;fill-opacity:0.97969546;stroke:#000000;stroke-width:2.14285707;stroke-miterlimit:4;stroke-opacity:1;stroke-dasharray:none"
       d="m 424.89311,771.22922 c -7.03412,-1.5622 -16.19483,-3.98682 -20.35714,-5.38804 -8.98807,-3.02578 -25.42727,-10.84573 -32.92499,-15.66207 -27.30711,-17.54138 -49.82131,-44.1525 -61.94937,-73.22235 -17.54417,-42.05175 -16.05977,-84.76152 4.40649,-126.78571 9.10334,-18.69225 21.25699,-34.66912 36.00379,-47.32965 18.46583,-15.85342 48.18715,-30.47655 73.68195,-36.2521 10.37617,-2.35061 36.66334,-3.14707 46.41354,-1.40627 24.15813,4.31319 48.49748,13.41621 63.37156,23.70122 13.74425,9.50375 34.5593,28.76969 44.062,40.78277 15.28507,19.32304 24.93485,41.94196 28.6894,67.24749 1.49065,10.04691 1.47522,29.53902 -0.0313,39.60326 -6.65158,44.43416 -32.1119,83.24767 -71.51518,109.02278 -10.79129,7.05897 -18.7755,10.79813 -32.83438,15.37694 -11.17364,3.63913 -28.99457,8.4566 -38.01218,10.2757 -5.15392,1.03969 -9.51557,0.92312 -11.12742,-0.2974 -1.19506,-0.9049 -1.6129,-0.80826 -3.83575,0.88718 -3.88392,2.96242 -8.70927,2.85127 -24.04097,-0.55375 l 0,0 z m 19.38505,-2.57682 c 2.84357,-0.76218 3.18673,-3.98984 3.56756,-33.55491 l 0.35976,-27.93072 -1.6901,-0.59038 c -0.92956,-0.32471 -20.97582,-0.80594 -44.54725,-1.0694 -23.57143,-0.26345 -43.74108,-0.72536 -44.82143,-1.02645 -1.78157,-0.49653 -1.96429,-0.8554 -1.96429,-3.858 0,-6.6427 4.55072,-42.80277 6.88865,-54.7372 1.92348,-9.81883 3.38137,-11.09451 13.28594,-11.62533 5.72359,-0.30675 6.56409,-0.17382 10.04899,1.58939 l 3.80299,1.92413 4.23672,-1.4229 c 6.19601,-2.08094 12.63547,-2.45675 27.37902,-1.59787 12.68389,0.73889 21.82168,0.47275 23.70365,-0.69038 0.66884,-0.41336 -0.01,-2.067 -2.61411,-6.36816 -10.07401,-16.63885 -22.31028,-29.06118 -34.25234,-34.77315 -6.93331,-3.31626 -13.29171,-4.50864 -24.12073,-4.52334 l -9.14122,-0.0124 3.78408,-7.1541 c 6.60067,-12.47908 18.76834,-27.2178 33.33726,-40.38146 11.60589,-10.48643 19.19584,-13.89301 30.95403,-13.89301 l 5.56422,0 0,-28.67535 0,-28.67534 -8.75,0.41467 c -28.4867,1.35004 -67.6509,19.16428 -90.87058,41.33344 -12.67722,12.10367 -21.31377,23.94825 -29.31356,40.20203 -15.41922,31.3284 -19.94674,64.62685 -13.16567,96.82913 9.3149,44.23497 40.55663,84.3008 81.74266,104.8305 13.0576,6.50872 28.71579,11.39745 47.18282,14.73123 6.7374,1.21627 7.33861,1.26132 9.41293,0.70533 l 0,0 z m 18.48926,-2.79153 c 16.55422,-2.85985 47.01295,-12.43529 58.12203,-18.27205 39.46005,-20.73253 69.13607,-59.21961 78.14455,-101.34634 8.30194,-38.82274 -0.39952,-80.44864 -22.98064,-109.93438 -11.77986,-15.38177 -31.02237,-33.47207 -46.94237,-44.13155 -15.87604,-10.63002 -47.83852,-21.25783 -66.68815,-22.17438 l -8.11671,-0.39468 0.35799,27.78178 c 0.1969,15.27998 0.58515,28.47777 0.86278,29.32842 0.27882,0.85431 1.35386,1.75803 2.40157,2.01886 9.1704,2.28296 27.81459,21.38071 40.50064,41.48591 4.65083,7.37077 16.38153,30.61271 19.11005,37.86262 1.52237,4.04502 4.78611,15.60955 4.78611,16.95875 0,0.19198 -4.09821,-1.4014 -9.10714,-3.54084 -14.04431,-5.99868 -21.10509,-8.16598 -28.1011,-8.62558 -10.70867,-0.7035 -18.88492,2.38885 -25.97797,9.82516 -4.46077,4.67666 -4.98448,6.75299 -1.99236,7.89909 2.00266,0.7671 4.492,0.87909 46.96429,2.11277 13.35714,0.38798 26.21428,1.02511 28.57142,1.41585 7.77712,1.28917 9.34655,4.9719 8.66232,20.32648 -0.89602,20.1074 -3.36377,39.53103 -5.37267,42.28829 -4.13513,5.67555 -21.87229,8.06085 -59.97878,8.06595 l -21.68912,0.003 0.38521,29.10714 c 0.33127,25.03143 0.70784,33.03572 1.55418,33.03572 0.0992,0 3.03491,-0.49315 6.52387,-1.0959 l 0,5e-5 z m -13.29929,-65.47553 c 0,-1.02057 0.24408,-1.32735 0.6963,-0.87513 0.39521,0.39521 2.71992,0.5265 5.37605,0.30362 2.57387,-0.21598 5.13442,-0.13824 5.69012,0.17274 0.65223,0.36501 1.27078,0.11814 1.74508,-0.69648 0.40874,-0.70202 0.74435,-0.86367 0.75644,-0.36433 0.0211,0.87358 10.60072,0.82987 43.95029,-0.18161 8.80203,-0.26696 20.01253,-2.3584 22.9475,-4.2811 1.18731,-0.7778 1.69933,-2.22879 2.34522,-6.64606 0.9978,-6.82398 2.13109,-20.28325 2.68871,-31.93165 0.22567,-4.71429 0.71661,-8.76644 1.09097,-9.00478 0.4258,-0.2711 0.38445,-1.53335 -0.11042,-3.37117 -0.68563,-2.54621 -1.14523,-3.03265 -3.44795,-3.64928 -4.20606,-1.1263 -25.39918,-2.17462 -44.11513,-2.18215 -15.45404,-0.006 -30.375,-1.10033 -35.68461,-2.61665 -1.16152,-0.3317 -1.26167,-0.23273 -0.53572,0.52946 1.3285,1.39481 1.10349,1.87741 -1.07142,2.298 -1.08036,0.20892 -3.41072,0.75611 -5.17858,1.21597 -1.76785,0.45986 -4.01785,0.96162 -5,1.11502 -1.58724,0.24792 -16.24037,0.49072 -17.14285,0.28406 -0.19643,-0.045 -1.16072,-0.28923 -2.14286,-0.54278 -0.98214,-0.25355 -6.92857,-0.47073 -13.21429,-0.48263 -10.9302,-0.0207 -11.60695,0.0619 -15.51939,1.89565 -4.67938,2.19315 -7.01159,2.18793 -9.36281,-0.0209 -0.90879,-0.85377 -1.86958,-1.33508 -2.13508,-1.06958 -0.26549,0.2655 -0.48272,0.10773 -0.48272,-0.3506 0,-0.5638 -1.80466,-0.83334 -5.5796,-0.83334 -6.21741,0 -8.22049,1.06693 -8.99275,4.78994 -1.93614,9.33391 -5.93674,39.50544 -6.56291,49.49578 -0.40669,6.48865 0.41039,9.37829 1.99778,7.0652 0.64532,-0.94034 1.3198,-1.02868 3.71303,-0.48634 1.60845,0.3645 3.82253,0.53339 4.92019,0.37531 1.09765,-0.15807 2.16126,-0.0196 2.36358,0.30778 0.50224,0.81263 15.80395,0.75592 18.68111,-0.0692 1.42857,-0.40971 2.31672,-0.40971 2.31672,0 0,0.36543 2.73214,0.66442 6.07143,0.66442 3.57142,0 6.07142,-0.29411 6.07142,-0.71428 0,-0.39286 1.76786,-0.71429 3.92858,-0.71429 2.16071,0 3.92857,0.32143 3.92857,0.71429 0,0.43809 3.45238,0.71428 8.92857,0.71428 4.91071,0 8.92857,-0.28062 8.92857,-0.6236 0,-0.67106 5.37695,-0.60347 7.14286,0.0898 2.48745,0.97652 3.38337,1.13812 6.60714,1.1917 3.03657,0.0505 3.39286,-0.10863 3.39286,-1.51504 l 0,-10e-6 z m 5.38628,-81.51673 c 4.76606,-4.76605 9.16419,-7.76643 14.53852,-9.91805 3.45585,-1.38357 5.27451,-1.59751 13.28948,-1.56338 8.95395,0.0382 9.5792,0.14213 17.5,2.91065 4.51786,1.5791 9.43633,3.41321 10.92993,4.0758 l 2.71565,1.20471 -0.48142,-2.70365 c -0.43286,-2.43099 -11.77689,-27.22603 -14.47212,-31.63221 -0.60077,-0.98215 -4.48975,-6.92857 -8.64217,-13.21429 -6.1185,-9.26185 -9.17491,-13.06152 -16.1213,-20.0417 -8.99986,-9.04364 -13.75886,-12.78856 -17.21177,-13.54416 -1.14067,-0.24962 -2.75937,-0.78436 -3.59711,-1.18833 -0.90391,-0.43586 -5.11474,-0.61249 -10.35714,-0.43443 -14.51428,0.49297 -18.30414,2.53514 -34.19112,18.42391 -9.52223,9.52331 -19.82516,21.92018 -23.01752,27.69553 l -1.94609,3.5207 6.47292,0.45947 c 7.45183,0.52894 14.30278,2.13038 17.48826,4.08796 1.21651,0.74759 2.42187,1.14924 2.67857,0.89254 0.25669,-0.2567 0.46672,-0.0917 0.46672,0.3666 0,0.45834 0.25882,0.75298 0.57516,0.65477 1.31244,-0.40747 9.83114,5.65303 15.53469,11.05191 6.38619,6.04507 14.39177,16.1259 19.24966,24.2397 l 2.84745,4.75588 0.89507,-3.06966 c 0.60523,-2.0756 2.17765,-4.35223 4.85568,-7.03027 l 0,0 z"
       id="path3021"
       inkscape:connector-curvature="0"
       transform="translate(0,-207.63782)" />
    <path
       style="fill:none;stroke:#000000;stroke-width:1px;stroke-linecap:butt;stroke-linejoin:miter;stroke-opacity:1"
       d="m 475.78186,640.2714 0,0"
       id="path3024"
       inkscape:path-effect="#path-effect3026"
       inkscape:original-d="m 475.78186,640.2714 c -7.57615,0.50508 2.52538,3.03046 0,0 z"
       inkscape:connector-curvature="0"
       transform="translate(0,-207.63782)" />
    <path
       style="fill:none;stroke:#000000;stroke-width:1px;stroke-linecap:butt;stroke-linejoin:miter;stroke-opacity:1"
       d="m 474.7717,638.2511 c -0.0536,-0.18772 -0.16189,-0.35858 -0.3042,-0.49224 -0.14231,-0.13365 -0.31797,-0.23037 -0.5052,-0.28571 -0.37445,-0.11067 -0.78626,-0.0534 -1.14108,0.10959 -0.35483,0.16298 -0.6567,0.42549 -0.91106,0.72175 -0.25435,0.29625 -0.46465,0.62716 -0.67399,0.95676 -0.20934,0.3296 -0.41964,0.66051 -0.67399,0.95676 -0.25436,0.29626 -0.55623,0.55877 -0.91106,0.72175 -0.35482,0.16298 -0.76663,0.22026 -1.14108,0.10959 -0.18723,-0.0553 -0.36289,-0.15206 -0.5052,-0.28571 -0.14231,-0.13366 -0.25057,-0.30452 -0.3042,-0.49224 -0.0536,-0.18772 -0.052,-0.38998 -0.002,-0.57864 0.0502,-0.18867 0.14827,-0.36359 0.278,-0.50949 0.25947,-0.29179 0.63938,-0.46071 1.02675,-0.50979 0.38737,-0.0491 0.78236,0.0143 1.15483,0.1315 0.37248,0.11716 0.72585,0.28701 1.07772,0.45627 0.35187,0.16926 0.70524,0.33911 1.07772,0.45627 0.37247,0.11717 0.76746,0.18057 1.15483,0.1315 0.38737,-0.0491 0.76728,-0.218 1.02675,-0.50979 0.12973,-0.1459 0.22778,-0.32082 0.278,-0.50949 0.0502,-0.18866 0.0519,-0.39092 -0.002,-0.57864"
       id="path3028"
       inkscape:path-effect="#path-effect3030"
       inkscape:original-d="m 474.7717,638.2511 c -8.08122,2.52538 -11.61675,5.55584 -7.07106,2.0203 4.54568,-3.53553 11.11167,-3.53553 7.07106,-2.0203 z"
       inkscape:connector-curvature="0"
       transform="translate(0,-207.63782)" />
    <path
       style="fill:#000000;fill-opacity:0.97969546;stroke:#000000;stroke-width:3;stroke-miterlimit:4;stroke-opacity:1;stroke-dasharray:none"
       id="path3038"
       d="m 392.65126,643.36894 c -6.09752,3.4555 21.67794,-12.48588 -2.33217,1.31382 0,0 5.73875,-4.63359 5.73875,-4.63359 l 0,0 c -11.95008,6.92814 -1.74764,1.00726 2.40469,-1.38182 0,0 -5.81127,4.70159 -5.81127,4.70159 z"
       inkscape:connector-curvature="0"
       transform="translate(0,-207.63782)" />
    <path
       style="fill:#000000;fill-opacity:0.97969546;stroke:#000000;stroke-width:3;stroke-miterlimit:4;stroke-opacity:1;stroke-dasharray:none"
       id="path3040"
       d="m 385.03061,647.22212 c -0.012,-0.16032 -0.0239,-0.32065 -0.0359,-0.48097 0,0 6.65107,-3.43273 6.65107,-3.43273 l 0,0 c 0.003,0.13298 0.007,0.26597 0.0101,0.39895 0,0 -6.62527,3.51475 -6.62527,3.51475 z"
       inkscape:connector-curvature="0"
       transform="translate(0,-207.63782)" />
    <path
       style="fill:#000000;fill-opacity:0.97969546;stroke:#000000;stroke-width:3;stroke-miterlimit:4;stroke-opacity:1;stroke-dasharray:none"
       id="path3042"
       d="m 432.74182,639.70242 c 0.50633,0.68447 1.28302,1.02957 2.03924,1.36194 0,0 -6.19604,4.09456 -6.19604,4.09456 l 0,0 c -0.86595,-0.44063 -1.7244,-0.9123 -2.33467,-1.69407 0,0 6.49147,-3.76243 6.49147,-3.76243 z"
       inkscape:connector-curvature="0"
       transform="translate(0,-207.63782)" />
    <path
       style="fill:#000000;fill-opacity:0.97969546;stroke:#000000;stroke-width:3;stroke-miterlimit:4;stroke-opacity:1;stroke-dasharray:none"
       id="path3044"
       d="m 475.13791,636.04664 c 1.27372,0.0298 2.54803,0.0195 3.82199,0.0158 0.19852,-5.9e-4 0.39705,-0.001 0.59557,-0.002 0,0 -6.0296,4.38076 -6.0296,4.38076 l 0,0 c -0.19692,-5.8e-4 -0.39384,-0.001 -0.59076,-0.002 -1.28848,-0.004 -2.57729,-0.0135 -3.86554,0.0158 0,0 6.06834,-4.40891 6.06834,-4.40891 z"
       inkscape:connector-curvature="0"
       transform="translate(0,-207.63782)" />
    <path
       style="fill:#000000;fill-opacity:0.97969546;stroke:#000000;stroke-width:3;stroke-miterlimit:4;stroke-opacity:1;stroke-dasharray:none"
       id="path3046"
       d="m 483.21913,636.55172 c 1.27372,0.0298 2.54803,0.0195 3.82199,0.0158 1.43334,0.0119 2.86672,0.003 4.30009,0.008 0.97721,-4.8e-4 0.50049,-0.0304 1.4306,0.0824 0,0 -6.0587,4.31733 -6.0587,4.31733 l 0,0 c -0.8761,-0.0532 -0.41799,-0.038 -1.37456,-0.0385 -1.44075,0.005 -2.8815,-0.004 -4.32222,0.008 -1.28848,-0.004 -2.57729,-0.0135 -3.86554,0.0158 0,0 6.06834,-4.40891 6.06834,-4.40891 z"
       inkscape:connector-curvature="0"
       transform="translate(0,-207.63782)" />
    <path
       style="fill:#ffffff;fill-opacity:0.97969545999999996;stroke:#000000;stroke-width:3;stroke-miterlimit:4;stroke-opacity:1;stroke-dasharray:none"
       id="path3048"
       d="m 500.8968,637.0568 c 1.86053,0.0467 3.72165,0.0506 5.58263,0.0429 1.09843,-0.007 2.19685,-0.0158 3.29527,-0.0234 0,0 -6.01453,4.36982 -6.01453,4.36982 l 0,0 c -1.07697,-0.008 -2.15392,-0.0168 -3.23089,-0.0234 -1.90038,-0.008 -3.80086,-0.002 -5.70082,0.0429 0,0 6.06834,-4.40891 6.06834,-4.40891 z"
       inkscape:connector-curvature="0"
       transform="translate(0,-207.63782)" />
    <path
       style="fill:#000000;fill-opacity:0.97969546;stroke:none"
       id="path3826"
       d="m 504.13733,641.75006 c -1.51524,-0.38086 -3.02667,-0.7835 -4.56561,-1.06254 -0.80586,-0.14018 -1.6218,-0.19194 -2.43753,-0.22886 0,0 6.06299,-4.34616 6.06299,-4.34616 l 0,0 c 0.82618,0.068 1.65093,0.15717 2.46279,0.33116 1.56671,0.33704 3.11924,0.74008 4.68103,1.09727 0,0 -6.20367,4.20913 -6.20367,4.20913 z"
       inkscape:connector-curvature="0"
       transform="translate(0,-207.63782)" />
    <path
       style="fill:none;stroke:#000000;stroke-width:3;stroke-linecap:butt;stroke-linejoin:miter;stroke-opacity:1;stroke-miterlimit:4;stroke-dasharray:none"
       d="m 1500.1165,-200.6714 0.767,1354.4324"
       id="path3026"
       inkscape:path-effect="#path-effect3028"
       inkscape:original-d="m 1500.1165,-200.6714 c 0.767,1352.3499 0.767,1354.4324 0.767,1354.4324"
       inkscape:connector-curvature="0" />
    <path
       style="fill:#ffffff;fill-opacity:0.97969546;stroke:none"
       d="m 756.21574,552.06049 c -0.0828,-8.55114 16.78986,-59.77657 29.0873,-88.30891 27.18762,-63.0803 91.94176,-142.53253 154.59769,-189.68875 81.35187,-61.22719 181.95147,-105.07676 287.00127,-125.09868 36.5269,-6.96184 102.6624,-14.52229 127.0346,-14.52229 l 16.2363,0 1.0955,171.7272 1.0956,171.72719 -248.4975,0.0467 c -262.87929,0.0494 -268.86771,0.42707 -305.06611,19.24 -18.13421,9.42466 -35.10849,24.37664 -51.49567,45.36054 -6.07429,7.77817 -11.06433,12.06082 -11.08898,9.51701 z"
       id="path3025"
       inkscape:connector-curvature="0"
       transform="translate(0,-207.63782)" />
    <path
       style="fill:#ffffff;fill-opacity:0.97969546;stroke:none"
       d="M 1283.4706,1118.5063 C 1120.691,1098.4503 989.8452,1038.3726 887.09491,936.51099 823.65953,873.62425 788.39551,816.77322 764.64172,739.0976 c -10.41213,-34.04799 -10.68151,-40.61029 -1.0192,-24.82819 18.06624,29.50879 61.07557,57.73171 100.83362,66.1675 14.49348,3.0752 99.68322,4.54317 263.64976,4.54317 l 242.2378,0 0,78.13891 c 0,42.9764 1.1991,119.34393 2.6648,169.70561 l 2.6649,91.5667 -25.8984,-0.4533 c -14.2441,-0.2493 -44.0811,-2.6936 -66.3044,-5.4317 z"
       id="path3027"
       inkscape:connector-curvature="0"
       transform="translate(0,-207.63782)" />
  </g>
</svg>
